<mxfile host="app.diagrams.net" agent="Mozilla/5.0 (Windows NT 10.0; Win64; x64) AppleWebKit/537.36 (KHTML, like Gecko) Chrome/133.0.0.0 Safari/537.36" version="26.0.16">
  <diagram name="Page-1" id="Sbc-Z2E9VxNOMkKnQpNq">
    <mxGraphModel dx="1034" dy="464" grid="1" gridSize="10" guides="1" tooltips="1" connect="1" arrows="1" fold="1" page="1" pageScale="1" pageWidth="850" pageHeight="1100" math="0" shadow="0">
      <root>
        <mxCell id="0" />
        <mxCell id="1" parent="0" />
        <mxCell id="RN55FJV32IDQ4ntnLgRQ-1" value="&lt;font style=&quot;font-size: 14px&quot;&gt;GND, LIDO,&lt;br&gt;NFDI4Culture, CIDOC-CRM,&lt;br&gt;Custom data models/schemas, etc.&lt;/font&gt;" style="html=1;dropTarget=0;fillColor=#dae8fc;strokeColor=#6c8ebf;" vertex="1" parent="1">
          <mxGeometry x="40" y="40" width="280" height="110" as="geometry" />
        </mxCell>
        <mxCell id="RN55FJV32IDQ4ntnLgRQ-2" value="" style="shape=module;jettyWidth=8;jettyHeight=4;" vertex="1" parent="RN55FJV32IDQ4ntnLgRQ-1">
          <mxGeometry x="1" width="20" height="20" relative="1" as="geometry">
            <mxPoint x="-27" y="7" as="offset" />
          </mxGeometry>
        </mxCell>
        <mxCell id="RN55FJV32IDQ4ntnLgRQ-3" value="&lt;span style=&quot;font-size: 14px&quot;&gt;ODRL, etc.&lt;/span&gt;" style="html=1;dropTarget=0;fillColor=#fff2cc;strokeColor=#d6b656;" vertex="1" parent="1">
          <mxGeometry x="40" y="150" width="280" height="70" as="geometry" />
        </mxCell>
        <mxCell id="RN55FJV32IDQ4ntnLgRQ-4" value="" style="shape=module;jettyWidth=8;jettyHeight=4;" vertex="1" parent="RN55FJV32IDQ4ntnLgRQ-3">
          <mxGeometry x="1" width="20" height="20" relative="1" as="geometry">
            <mxPoint x="-27" y="7" as="offset" />
          </mxGeometry>
        </mxCell>
        <mxCell id="RN55FJV32IDQ4ntnLgRQ-5" value="&lt;span style=&quot;font-size: 14px&quot;&gt;IDS Information Model, Gaia-X Schemas&lt;/span&gt;" style="html=1;dropTarget=0;fillColor=#d5e8d4;strokeColor=#82b366;" vertex="1" parent="1">
          <mxGeometry x="40" y="220" width="280" height="80" as="geometry" />
        </mxCell>
        <mxCell id="RN55FJV32IDQ4ntnLgRQ-6" value="" style="shape=module;jettyWidth=8;jettyHeight=4;" vertex="1" parent="RN55FJV32IDQ4ntnLgRQ-5">
          <mxGeometry x="1" width="20" height="20" relative="1" as="geometry">
            <mxPoint x="-27" y="7" as="offset" />
          </mxGeometry>
        </mxCell>
        <mxCell id="RN55FJV32IDQ4ntnLgRQ-7" value="&lt;div&gt;&lt;span style=&quot;font-size: 14px; background-color: initial;&quot;&gt;DRK Ontology &amp;amp;&amp;nbsp;&lt;/span&gt;&lt;/div&gt;&lt;div&gt;&lt;span style=&quot;font-size: 14px; background-color: initial;&quot;&gt;FOAF, DCTERMS,&lt;/span&gt;&lt;br&gt;&lt;/div&gt;&lt;span style=&quot;font-size: 14px&quot;&gt;SKOS, OM,&lt;br&gt;DBpedia,&lt;br&gt;&lt;/span&gt;&lt;span style=&quot;font-size: 14px&quot;&gt;schema.org, etc.&lt;/span&gt;&lt;span style=&quot;font-size: 14px&quot;&gt;&lt;br&gt;&lt;/span&gt;" style="html=1;dropTarget=0;fillColor=#e1d5e7;strokeColor=#9673a6;" vertex="1" parent="1">
          <mxGeometry x="320" y="40" width="130" height="260" as="geometry" />
        </mxCell>
        <mxCell id="RN55FJV32IDQ4ntnLgRQ-8" value="" style="shape=module;jettyWidth=8;jettyHeight=4;" vertex="1" parent="RN55FJV32IDQ4ntnLgRQ-7">
          <mxGeometry x="1" width="20" height="20" relative="1" as="geometry">
            <mxPoint x="-27" y="7" as="offset" />
          </mxGeometry>
        </mxCell>
      </root>
    </mxGraphModel>
  </diagram>
</mxfile>
